<svg xmlns="http://www.w3.org/2000/svg" viewBox="0 0 1400 420" role="img" aria-labelledby="title desc">
  <title id="title">Caelomere Ltd business logo</title>
  <desc id="desc">A restrained gold Caelomere C monogram with ivory corporate wordmark on black.</desc>
  <defs>
    <linearGradient id="gold" x1="0" y1="0" x2="1" y2="1">
      <stop offset="0" stop-color="#8A5B16"/><stop offset="0.32" stop-color="#F4D684"/><stop offset="0.62" stop-color="#C8912E"/><stop offset="1" stop-color="#6C420D"/>
    </linearGradient>
    <filter id="glow" x="-30%" y="-30%" width="160%" height="160%"><feGaussianBlur stdDeviation="8" result="b"/><feMerge><feMergeNode in="b"/><feMergeNode in="SourceGraphic"/></feMerge></filter>
  </defs>
  <rect width="1400" height="420" rx="34" fill="#050505"/>
  <g transform="translate(58 54)">
    <circle cx="156" cy="156" r="122" fill="none" stroke="#2B2111" stroke-width="1"/>
    <path d="M244 86C221 52 183 32 141 35C77 39 29 95 35 159C41 223 98 270 162 263C194 260 224 245 246 221L213 192C198 207 179 216 158 218C119 222 84 194 80 155C76 116 105 82 144 79C170 77 194 88 210 108Z" fill="url(#gold)" filter="url(#glow)"/>
    <path d="M219 111L169 151L219 191L191 213L113 151L191 89Z" fill="#050505"/>
    <circle cx="156" cy="156" r="7" fill="#F4D684"/>
  </g>
  <g transform="translate(390 103)">
    <text x="0" y="90" fill="#F5F0E7" font-family="Georgia, 'Times New Roman', serif" font-size="92" font-weight="600" letter-spacing="8">CAELOMERE</text>
    <line x1="4" y1="128" x2="865" y2="128" stroke="#8A651F" stroke-width="1"/>
    <text x="4" y="176" fill="#D4AF58" font-family="Arial, Helvetica, sans-serif" font-size="22" font-weight="700" letter-spacing="11">INTELLIGENCE WITH HUMAN JUDGEMENT</text>
  </g>
</svg>